<svg width="416" height="80" viewBox="0 0 416 80" fill="none" xmlns="http://www.w3.org/2000/svg">
<rect width="80" height="80" rx="8" fill="white"/>
<path d="M9.492 26.792C9.492 26.456 9.636 26.288 9.924 26.288H26.088C26.328 26.288 26.448 26.42 26.448 26.684V28.52C26.448 28.808 26.292 28.952 25.98 28.952H13.416C13.104 28.952 12.948 29.096 12.948 29.384V37.808C12.948 38.072 13.08 38.204 13.344 38.204H22.668C22.932 38.204 23.064 38.336 23.064 38.6V40.508C23.064 40.604 23.04 40.688 22.992 40.76C22.944 40.808 22.836 40.832 22.668 40.832H13.344C13.08 40.832 12.948 40.964 12.948 41.228V49.976C12.948 50.216 13.068 50.336 13.308 50.336H26.52C26.784 50.336 26.916 50.456 26.916 50.696V52.604C26.916 52.724 26.88 52.82 26.808 52.892C26.76 52.964 26.664 53 26.52 53H9.996C9.66 53 9.492 52.832 9.492 52.496V26.792ZM46.5335 31.256C45.9095 30.512 45.1055 29.876 44.1215 29.348C43.1375 28.82 41.9015 28.556 40.4135 28.556C38.6135 28.556 37.1975 28.952 36.1655 29.744C35.1335 30.536 34.6175 31.64 34.6175 33.056C34.6175 33.44 34.7015 33.884 34.8695 34.388C35.0615 34.892 35.4335 35.384 35.9855 35.864C36.5375 36.344 37.3655 36.776 38.4695 37.16L43.6895 38.888C45.8735 39.608 47.4215 40.568 48.3335 41.768C49.2455 42.944 49.7015 44.336 49.7015 45.944C49.7015 47.48 49.3175 48.812 48.5495 49.94C47.7815 51.044 46.6895 51.896 45.2735 52.496C43.8575 53.072 42.1535 53.36 40.1615 53.36C38.7215 53.36 37.3895 53.192 36.1655 52.856C34.9415 52.496 33.8495 51.992 32.8895 51.344C31.9535 50.672 31.1495 49.844 30.4775 48.86C30.3575 48.692 30.3095 48.548 30.3335 48.428C30.3815 48.284 30.5015 48.14 30.6935 47.996L31.9895 47.096C32.2295 46.952 32.4095 46.88 32.5295 46.88C32.6735 46.88 32.7935 46.952 32.8895 47.096C33.5375 47.912 34.1735 48.596 34.7975 49.148C35.4215 49.676 36.1415 50.072 36.9575 50.336C37.7975 50.6 38.8175 50.732 40.0175 50.732C41.9135 50.732 43.4495 50.396 44.6255 49.724C45.8015 49.028 46.3895 47.888 46.3895 46.304C46.3895 45.704 46.2695 45.164 46.0295 44.684C45.7895 44.18 45.3815 43.724 44.8055 43.316C44.2295 42.884 43.4015 42.464 42.3215 42.056L36.8495 40.184C35.5295 39.728 34.4615 39.14 33.6455 38.42C32.8295 37.7 32.2295 36.908 31.8455 36.044C31.4855 35.18 31.3055 34.292 31.3055 33.38C31.3055 31.868 31.6895 30.56 32.4575 29.456C33.2255 28.328 34.2815 27.464 35.6255 26.864C36.9935 26.24 38.5895 25.928 40.4135 25.928C41.6375 25.928 42.7535 26.072 43.7615 26.36C44.7935 26.648 45.7295 27.056 46.5695 27.584C47.4335 28.112 48.1895 28.748 48.8375 29.492C48.9335 29.588 48.9935 29.696 49.0175 29.816C49.0415 29.936 48.9815 30.056 48.8375 30.176L47.1815 31.472C47.0615 31.544 46.9655 31.568 46.8935 31.544C46.8215 31.496 46.7015 31.4 46.5335 31.256ZM55.16 26.792C55.16 26.456 55.304 26.288 55.592 26.288H71.432C71.672 26.288 71.792 26.42 71.792 26.684V28.52C71.792 28.808 71.636 28.952 71.324 28.952H59.084C58.772 28.952 58.616 29.096 58.616 29.384V38.24C58.616 38.504 58.748 38.636 59.012 38.636H68.624C68.888 38.636 69.02 38.756 69.02 38.996V40.904C69.02 41.12 68.888 41.228 68.624 41.228H59.012C58.748 41.228 58.616 41.36 58.616 41.624V52.532C58.616 52.844 58.448 53 58.112 53H55.664C55.472 53 55.34 52.964 55.268 52.892C55.196 52.82 55.16 52.688 55.16 52.496V26.792Z" fill="black"/>
<path d="M103.492 29.792C103.492 29.456 103.636 29.288 103.924 29.288H120.088C120.328 29.288 120.448 29.42 120.448 29.684V31.52C120.448 31.808 120.292 31.952 119.98 31.952H107.416C107.104 31.952 106.948 32.096 106.948 32.384V40.808C106.948 41.072 107.08 41.204 107.344 41.204H116.668C116.932 41.204 117.064 41.336 117.064 41.6V43.508C117.064 43.604 117.04 43.688 116.992 43.76C116.944 43.808 116.836 43.832 116.668 43.832H107.344C107.08 43.832 106.948 43.964 106.948 44.228V52.976C106.948 53.216 107.068 53.336 107.308 53.336H120.52C120.784 53.336 120.916 53.456 120.916 53.696V55.604C120.916 55.724 120.88 55.82 120.808 55.892C120.76 55.964 120.664 56 120.52 56H103.996C103.66 56 103.492 55.832 103.492 55.496V29.792ZM128.437 55.388C128.437 55.628 128.389 55.796 128.293 55.892C128.197 55.964 128.029 56 127.789 56H125.917C125.557 56 125.377 55.832 125.377 55.496L125.413 29.792C125.413 29.456 125.557 29.288 125.845 29.288H128.005C128.293 29.288 128.437 29.444 128.437 29.756V55.388ZM137.015 55.388C137.015 55.628 136.967 55.796 136.871 55.892C136.799 55.964 136.631 56 136.367 56H134.531C134.315 56 134.171 55.964 134.099 55.892C134.027 55.82 133.991 55.688 133.991 55.496V37.424C133.991 37.088 134.135 36.92 134.423 36.92H136.619C136.883 36.92 137.015 37.076 137.015 37.388V55.388ZM137.159 32.816C137.159 33.272 136.943 33.5 136.511 33.5H134.423C134.207 33.5 134.063 33.452 133.991 33.356C133.919 33.236 133.883 33.08 133.883 32.888V29.864C133.883 29.48 134.051 29.288 134.387 29.288H136.655C136.991 29.288 137.159 29.468 137.159 29.828V32.816ZM147.644 39.188C147.452 39.188 147.356 39.284 147.356 39.476V50.888C147.356 52.016 147.548 52.772 147.932 53.156C148.316 53.54 148.892 53.732 149.66 53.732H152.144C152.264 53.732 152.36 53.768 152.432 53.84C152.504 53.888 152.54 53.984 152.54 54.128L152.504 55.352C152.504 55.592 152.36 55.748 152.072 55.82C151.832 55.868 151.484 55.904 151.028 55.928C150.596 55.952 150.164 55.976 149.732 56C149.324 56 148.976 56 148.688 56C147.176 56 146.072 55.652 145.376 54.956C144.68 54.236 144.332 53.108 144.332 51.572V39.548C144.332 39.308 144.212 39.188 143.972 39.188H141.092C140.828 39.188 140.696 39.056 140.696 38.792V37.28C140.696 37.04 140.816 36.92 141.056 36.92H144.116C144.284 36.92 144.368 36.824 144.368 36.632L144.764 30.908C144.788 30.596 144.92 30.44 145.16 30.44H146.96C147.248 30.44 147.392 30.608 147.392 30.944V36.632C147.392 36.824 147.488 36.92 147.68 36.92H152.216C152.48 36.92 152.612 37.028 152.612 37.244V38.792C152.612 39.056 152.48 39.188 152.216 39.188H147.644ZM158.085 47.648C158.085 48.824 158.361 49.904 158.913 50.888C159.489 51.848 160.245 52.616 161.181 53.192C162.141 53.768 163.209 54.056 164.385 54.056C165.585 54.056 166.653 53.816 167.589 53.336C168.525 52.832 169.329 52.076 170.001 51.068C170.097 50.972 170.169 50.924 170.217 50.924C170.289 50.9 170.385 50.912 170.505 50.96L172.017 51.716C172.233 51.836 172.257 52.004 172.089 52.22C171.441 53.18 170.721 53.972 169.929 54.596C169.161 55.196 168.297 55.64 167.337 55.928C166.377 56.216 165.297 56.36 164.097 56.36C162.321 56.36 160.749 55.952 159.381 55.136C158.013 54.32 156.933 53.18 156.141 51.716C155.349 50.252 154.953 48.56 154.953 46.64C154.953 44.552 155.349 42.764 156.141 41.276C156.957 39.764 158.049 38.6 159.417 37.784C160.809 36.968 162.357 36.56 164.061 36.56C165.813 36.56 167.337 36.944 168.633 37.712C169.929 38.48 170.937 39.596 171.657 41.06C172.377 42.524 172.737 44.288 172.737 46.352C172.737 46.52 172.713 46.688 172.665 46.856C172.641 47.024 172.485 47.108 172.197 47.108H158.409C158.313 47.108 158.229 47.168 158.157 47.288C158.109 47.384 158.085 47.504 158.085 47.648ZM169.101 45.128C169.365 45.128 169.533 45.104 169.605 45.056C169.677 44.984 169.713 44.84 169.713 44.624C169.713 43.592 169.485 42.632 169.029 41.744C168.597 40.832 167.961 40.1 167.121 39.548C166.305 38.996 165.309 38.72 164.133 38.72C162.837 38.72 161.745 39.032 160.857 39.656C159.969 40.256 159.297 41.048 158.841 42.032C158.385 43.016 158.157 44.048 158.157 45.128H169.101ZM199.842 34.256C199.218 33.512 198.414 32.876 197.43 32.348C196.446 31.82 195.21 31.556 193.722 31.556C191.922 31.556 190.506 31.952 189.474 32.744C188.442 33.536 187.926 34.64 187.926 36.056C187.926 36.44 188.01 36.884 188.178 37.388C188.37 37.892 188.742 38.384 189.294 38.864C189.846 39.344 190.674 39.776 191.778 40.16L196.998 41.888C199.182 42.608 200.73 43.568 201.642 44.768C202.554 45.944 203.01 47.336 203.01 48.944C203.01 50.48 202.626 51.812 201.858 52.94C201.09 54.044 199.998 54.896 198.582 55.496C197.166 56.072 195.462 56.36 193.47 56.36C192.03 56.36 190.698 56.192 189.474 55.856C188.25 55.496 187.158 54.992 186.198 54.344C185.262 53.672 184.458 52.844 183.786 51.86C183.666 51.692 183.618 51.548 183.642 51.428C183.69 51.284 183.81 51.14 184.002 50.996L185.298 50.096C185.538 49.952 185.718 49.88 185.838 49.88C185.982 49.88 186.102 49.952 186.198 50.096C186.846 50.912 187.482 51.596 188.106 52.148C188.73 52.676 189.45 53.072 190.266 53.336C191.106 53.6 192.126 53.732 193.326 53.732C195.222 53.732 196.758 53.396 197.934 52.724C199.11 52.028 199.698 50.888 199.698 49.304C199.698 48.704 199.578 48.164 199.338 47.684C199.098 47.18 198.69 46.724 198.114 46.316C197.538 45.884 196.71 45.464 195.63 45.056L190.158 43.184C188.838 42.728 187.77 42.14 186.954 41.42C186.138 40.7 185.538 39.908 185.154 39.044C184.794 38.18 184.614 37.292 184.614 36.38C184.614 34.868 184.998 33.56 185.766 32.456C186.534 31.328 187.59 30.464 188.934 29.864C190.302 29.24 191.898 28.928 193.722 28.928C194.946 28.928 196.062 29.072 197.07 29.36C198.102 29.648 199.038 30.056 199.878 30.584C200.742 31.112 201.498 31.748 202.146 32.492C202.242 32.588 202.302 32.696 202.326 32.816C202.35 32.936 202.29 33.056 202.146 33.176L200.49 34.472C200.37 34.544 200.274 34.568 200.202 34.544C200.13 34.496 200.01 34.4 199.842 34.256ZM210.233 36.92C210.569 36.92 210.737 37.1 210.737 37.46V38.972C210.737 39.164 210.773 39.272 210.845 39.296C210.941 39.296 211.061 39.236 211.205 39.116C211.469 38.828 211.829 38.492 212.285 38.108C212.741 37.7 213.329 37.34 214.049 37.028C214.793 36.716 215.729 36.56 216.857 36.56C218.321 36.56 219.641 36.92 220.817 37.64C222.017 38.336 222.965 39.392 223.661 40.808C224.381 42.224 224.741 44.012 224.741 46.172C224.741 48.332 224.393 50.168 223.697 51.68C223.001 53.192 222.029 54.356 220.781 55.172C219.557 55.964 218.117 56.36 216.461 56.36C215.357 56.36 214.373 56.192 213.509 55.856C212.669 55.496 211.949 55.064 211.349 54.56C211.133 54.368 210.977 54.296 210.881 54.344C210.809 54.368 210.773 54.512 210.773 54.776V61.472C210.773 61.784 210.641 61.94 210.377 61.94H208.145C207.881 61.94 207.749 61.784 207.749 61.472V37.496C207.749 37.28 207.785 37.136 207.857 37.064C207.953 36.968 208.109 36.92 208.325 36.92H210.233ZM210.773 51.788C211.517 52.508 212.273 53.084 213.041 53.516C213.833 53.948 214.709 54.164 215.669 54.164C216.821 54.164 217.841 53.864 218.729 53.264C219.641 52.664 220.349 51.776 220.853 50.6C221.381 49.424 221.645 47.96 221.645 46.208C221.645 44.456 221.381 43.028 220.853 41.924C220.325 40.82 219.617 40.016 218.729 39.512C217.865 39.008 216.905 38.756 215.849 38.756C214.865 38.756 213.989 38.972 213.221 39.404C212.453 39.836 211.853 40.376 211.421 41.024C210.989 41.648 210.773 42.272 210.773 42.896V51.788ZM237.221 56.36C235.421 56.36 233.825 55.952 232.433 55.136C231.065 54.296 229.997 53.144 229.229 51.68C228.485 50.192 228.113 48.488 228.113 46.568C228.113 44.576 228.497 42.836 229.265 41.348C230.057 39.836 231.137 38.66 232.505 37.82C233.873 36.98 235.457 36.56 237.257 36.56C239.081 36.56 240.665 36.992 242.009 37.856C243.377 38.696 244.433 39.872 245.177 41.384C245.945 42.872 246.329 44.588 246.329 46.532C246.329 48.452 245.945 50.156 245.177 51.644C244.409 53.108 243.341 54.26 241.973 55.1C240.629 55.94 239.045 56.36 237.221 56.36ZM237.293 54.092C238.541 54.092 239.609 53.792 240.497 53.192C241.385 52.568 242.057 51.692 242.513 50.564C242.993 49.412 243.233 48.044 243.233 46.46C243.233 44.876 242.993 43.52 242.513 42.392C242.033 41.24 241.349 40.352 240.461 39.728C239.573 39.104 238.505 38.792 237.257 38.792C236.033 38.792 234.965 39.104 234.053 39.728C233.141 40.352 232.433 41.24 231.929 42.392C231.449 43.52 231.209 44.876 231.209 46.46C231.209 48.02 231.449 49.376 231.929 50.528C232.433 51.68 233.141 52.568 234.053 53.192C234.965 53.792 236.045 54.092 237.293 54.092ZM251.284 56C251.116 56 250.984 55.964 250.888 55.892C250.816 55.796 250.78 55.676 250.78 55.532V37.388C250.78 37.076 250.912 36.92 251.176 36.92H253.264C253.528 36.92 253.66 37.052 253.66 37.316V39.656C253.66 39.8 253.696 39.884 253.768 39.908C253.84 39.932 253.936 39.884 254.056 39.764C254.68 39.02 255.292 38.42 255.892 37.964C256.516 37.484 257.14 37.136 257.764 36.92C258.388 36.68 259.012 36.56 259.636 36.56C260.476 36.56 260.896 36.716 260.896 37.028V39.188C260.896 39.428 260.788 39.524 260.572 39.476C260.356 39.452 260.104 39.428 259.816 39.404C259.552 39.38 259.264 39.368 258.952 39.368C258.424 39.368 257.86 39.488 257.26 39.728C256.66 39.944 256.096 40.256 255.568 40.664C255.064 41.072 254.644 41.528 254.308 42.032C253.972 42.536 253.804 43.04 253.804 43.544V55.46C253.804 55.82 253.624 56 253.264 56H251.284ZM269.601 39.188C269.409 39.188 269.313 39.284 269.313 39.476V50.888C269.313 52.016 269.505 52.772 269.889 53.156C270.273 53.54 270.849 53.732 271.617 53.732H274.101C274.221 53.732 274.317 53.768 274.389 53.84C274.461 53.888 274.497 53.984 274.497 54.128L274.461 55.352C274.461 55.592 274.317 55.748 274.029 55.82C273.789 55.868 273.441 55.904 272.985 55.928C272.553 55.952 272.121 55.976 271.689 56C271.281 56 270.933 56 270.645 56C269.133 56 268.029 55.652 267.333 54.956C266.637 54.236 266.289 53.108 266.289 51.572V39.548C266.289 39.308 266.169 39.188 265.929 39.188H263.049C262.785 39.188 262.653 39.056 262.653 38.792V37.28C262.653 37.04 262.773 36.92 263.013 36.92H266.073C266.241 36.92 266.325 36.824 266.325 36.632L266.721 30.908C266.745 30.596 266.877 30.44 267.117 30.44H268.917C269.205 30.44 269.349 30.608 269.349 30.944V36.632C269.349 36.824 269.445 36.92 269.637 36.92H274.173C274.437 36.92 274.569 37.028 274.569 37.244V38.792C274.569 39.056 274.437 39.188 274.173 39.188H269.601ZM286.902 29.792C286.902 29.456 287.046 29.288 287.334 29.288H303.174C303.414 29.288 303.534 29.42 303.534 29.684V31.52C303.534 31.808 303.378 31.952 303.066 31.952H290.826C290.514 31.952 290.358 32.096 290.358 32.384V41.24C290.358 41.504 290.49 41.636 290.754 41.636H300.366C300.63 41.636 300.762 41.756 300.762 41.996V43.904C300.762 44.12 300.63 44.228 300.366 44.228H290.754C290.49 44.228 290.358 44.36 290.358 44.624V55.532C290.358 55.844 290.19 56 289.854 56H287.406C287.214 56 287.082 55.964 287.01 55.892C286.938 55.82 286.902 55.688 286.902 55.496V29.792ZM310.827 55.388C310.827 55.628 310.779 55.796 310.683 55.892C310.611 55.964 310.443 56 310.179 56H308.343C308.127 56 307.983 55.964 307.911 55.892C307.839 55.82 307.803 55.688 307.803 55.496V37.424C307.803 37.088 307.947 36.92 308.235 36.92H310.431C310.695 36.92 310.827 37.076 310.827 37.388V55.388ZM310.971 32.816C310.971 33.272 310.755 33.5 310.323 33.5H308.235C308.019 33.5 307.875 33.452 307.803 33.356C307.731 33.236 307.695 33.08 307.695 32.888V29.864C307.695 29.48 307.863 29.288 308.199 29.288H310.467C310.803 29.288 310.971 29.468 310.971 29.828V32.816ZM316.921 56C316.585 56 316.417 55.844 316.417 55.532V37.388C316.417 37.076 316.549 36.92 316.813 36.92H318.973C319.237 36.92 319.369 37.052 319.369 37.316V39.404C319.369 39.524 319.393 39.596 319.441 39.62C319.489 39.644 319.573 39.608 319.693 39.512C320.485 38.888 321.217 38.36 321.889 37.928C322.585 37.472 323.293 37.136 324.013 36.92C324.733 36.68 325.501 36.56 326.317 36.56C328.189 36.56 329.617 37.064 330.601 38.072C331.609 39.08 332.113 40.388 332.113 41.996V55.424C332.113 55.808 331.933 56 331.573 56H329.557C329.389 56 329.269 55.964 329.197 55.892C329.125 55.796 329.089 55.676 329.089 55.532V42.68C329.089 41.504 328.789 40.592 328.189 39.944C327.589 39.272 326.641 38.936 325.345 38.936C324.649 38.936 323.989 39.056 323.365 39.296C322.765 39.512 322.153 39.836 321.529 40.268C320.905 40.676 320.209 41.204 319.441 41.852V55.46C319.441 55.82 319.261 56 318.901 56H316.921ZM348.42 53.696C347.532 54.56 346.56 55.22 345.504 55.676C344.472 56.132 343.308 56.36 342.012 56.36C340.14 56.36 338.664 55.88 337.584 54.92C336.528 53.96 336 52.7 336 51.14C336 49.868 336.36 48.776 337.08 47.864C337.8 46.928 338.868 46.196 340.284 45.668C341.7 45.116 343.44 44.78 345.504 44.66L348.312 44.444C348.456 44.42 348.588 44.372 348.708 44.3C348.828 44.228 348.888 44.096 348.888 43.904V42.932C348.888 41.636 348.48 40.616 347.664 39.872C346.872 39.104 345.792 38.72 344.424 38.72C343.368 38.72 342.408 38.96 341.544 39.44C340.704 39.92 339.948 40.64 339.276 41.6C339.18 41.72 339.096 41.804 339.024 41.852C338.976 41.876 338.88 41.864 338.736 41.816L336.792 41.168C336.72 41.12 336.66 41.06 336.612 40.988C336.588 40.916 336.624 40.784 336.72 40.592C337.44 39.344 338.448 38.36 339.744 37.64C341.064 36.92 342.672 36.56 344.568 36.56C346.176 36.56 347.508 36.812 348.564 37.316C349.644 37.796 350.448 38.504 350.976 39.44C351.528 40.352 351.804 41.444 351.804 42.716V55.46C351.804 55.676 351.768 55.82 351.696 55.892C351.624 55.964 351.504 56 351.336 56H349.5C349.332 56 349.212 55.952 349.14 55.856C349.068 55.736 349.02 55.592 348.996 55.424L348.96 53.768C348.888 53.432 348.708 53.408 348.42 53.696ZM348.888 46.856C348.888 46.448 348.72 46.256 348.384 46.28L346.008 46.496C344.904 46.544 343.92 46.688 343.056 46.928C342.192 47.144 341.46 47.432 340.86 47.792C340.26 48.152 339.804 48.584 339.492 49.088C339.18 49.568 339.024 50.132 339.024 50.78C339.024 51.836 339.384 52.664 340.104 53.264C340.848 53.84 341.844 54.128 343.092 54.128C343.86 54.128 344.592 53.996 345.288 53.732C346.008 53.444 346.632 53.084 347.16 52.652C347.712 52.196 348.132 51.728 348.42 51.248C348.732 50.768 348.888 50.3 348.888 49.844V46.856ZM357.667 56C357.331 56 357.163 55.844 357.163 55.532V37.388C357.163 37.076 357.295 36.92 357.559 36.92H359.719C359.983 36.92 360.115 37.052 360.115 37.316V39.404C360.115 39.524 360.139 39.596 360.187 39.62C360.235 39.644 360.319 39.608 360.439 39.512C361.231 38.888 361.963 38.36 362.635 37.928C363.331 37.472 364.039 37.136 364.759 36.92C365.479 36.68 366.247 36.56 367.063 36.56C368.935 36.56 370.363 37.064 371.347 38.072C372.355 39.08 372.859 40.388 372.859 41.996V55.424C372.859 55.808 372.679 56 372.319 56H370.303C370.135 56 370.015 55.964 369.943 55.892C369.871 55.796 369.835 55.676 369.835 55.532V42.68C369.835 41.504 369.535 40.592 368.935 39.944C368.335 39.272 367.387 38.936 366.091 38.936C365.395 38.936 364.735 39.056 364.111 39.296C363.511 39.512 362.899 39.836 362.275 40.268C361.651 40.676 360.955 41.204 360.187 41.852V55.46C360.187 55.82 360.007 56 359.647 56H357.667ZM386.106 36.56C387.354 36.56 388.446 36.764 389.382 37.172C390.342 37.556 391.158 38.096 391.83 38.792C392.526 39.464 393.102 40.208 393.558 41.024C393.702 41.312 393.642 41.492 393.378 41.564L391.398 42.032C391.23 42.104 391.074 42.032 390.93 41.816C390.45 41.12 389.97 40.556 389.49 40.124C389.034 39.692 388.542 39.368 388.014 39.152C387.486 38.912 386.91 38.792 386.286 38.792C385.062 38.792 383.982 39.104 383.046 39.728C382.134 40.328 381.426 41.204 380.922 42.356C380.418 43.508 380.166 44.876 380.166 46.46C380.166 48.068 380.418 49.448 380.922 50.6C381.45 51.752 382.17 52.628 383.082 53.228C384.018 53.828 385.11 54.128 386.358 54.128C387.51 54.128 388.506 53.84 389.346 53.264C390.186 52.688 390.954 51.848 391.65 50.744C391.722 50.624 391.782 50.564 391.83 50.564C391.902 50.54 391.998 50.552 392.118 50.6L393.666 51.176C393.834 51.248 393.882 51.404 393.81 51.644C393.45 52.268 393.03 52.868 392.55 53.444C392.07 54.02 391.506 54.524 390.858 54.956C390.234 55.388 389.526 55.736 388.734 56C387.942 56.24 387.066 56.36 386.106 56.36C384.33 56.36 382.758 55.952 381.39 55.136C380.046 54.296 378.99 53.144 378.222 51.68C377.454 50.192 377.07 48.476 377.07 46.532C377.07 44.564 377.454 42.836 378.222 41.348C379.014 39.86 380.082 38.696 381.426 37.856C382.794 36.992 384.354 36.56 386.106 36.56ZM399.468 47.648C399.468 48.824 399.744 49.904 400.296 50.888C400.872 51.848 401.628 52.616 402.564 53.192C403.524 53.768 404.592 54.056 405.768 54.056C406.968 54.056 408.036 53.816 408.972 53.336C409.908 52.832 410.712 52.076 411.384 51.068C411.48 50.972 411.552 50.924 411.6 50.924C411.672 50.9 411.768 50.912 411.888 50.96L413.4 51.716C413.616 51.836 413.64 52.004 413.472 52.22C412.824 53.18 412.104 53.972 411.312 54.596C410.544 55.196 409.68 55.64 408.72 55.928C407.76 56.216 406.68 56.36 405.48 56.36C403.704 56.36 402.132 55.952 400.764 55.136C399.396 54.32 398.316 53.18 397.524 51.716C396.732 50.252 396.336 48.56 396.336 46.64C396.336 44.552 396.732 42.764 397.524 41.276C398.34 39.764 399.432 38.6 400.8 37.784C402.192 36.968 403.74 36.56 405.444 36.56C407.196 36.56 408.72 36.944 410.016 37.712C411.312 38.48 412.32 39.596 413.04 41.06C413.76 42.524 414.12 44.288 414.12 46.352C414.12 46.52 414.096 46.688 414.048 46.856C414.024 47.024 413.868 47.108 413.58 47.108H399.792C399.696 47.108 399.612 47.168 399.54 47.288C399.492 47.384 399.468 47.504 399.468 47.648ZM410.484 45.128C410.748 45.128 410.916 45.104 410.988 45.056C411.06 44.984 411.096 44.84 411.096 44.624C411.096 43.592 410.868 42.632 410.412 41.744C409.98 40.832 409.344 40.1 408.504 39.548C407.688 38.996 406.692 38.72 405.516 38.72C404.22 38.72 403.128 39.032 402.24 39.656C401.352 40.256 400.68 41.048 400.224 42.032C399.768 43.016 399.54 44.048 399.54 45.128H410.484Z" fill="white"/>
</svg>
